<svg id="Layer_1" data-name="Layer 1" xmlns="http://www.w3.org/2000/svg" width="200" viewBox="0 0 1196 412"><defs><style>.cls-1,.cls-2,.cls-3{fill:#d19c3d;}.cls-2{font-size:179px;letter-spacing:-0.03em;}.cls-2,.cls-3{font-family:BigCaslon-Medium, Big Caslon;font-weight:500;}.cls-3{font-size:132px;letter-spacing:-0.02em;}</style></defs><path class="cls-1" d="M313.34,341.38c4.61-4.78,9.2-9.58,13.84-14.33a3.91,3.91,0,0,1,1.8-.85c2.25-.55,3.68-1.71,4-4.2a12.08,12.08,0,0,1,1.37-3.21c3.63,1.94,2.52-2.37,4.16-3.25,1.81-1,2.29-3.25,3.25-5.06,1.29-2.42,3.64-4.25,5.18-6.57.89-1.34,1.09-3.15,1.61-4.74,2.53.28,1.59-2.82,3.35-3.48.56-.21-1-2,1.22-2.41.84-.14,1.3-2.53,2-3.89.57-1.21,1.22-2.38,1.73-3.62.58-1.41,2.43-1.93,2.31-4-.07-1.16,1-2.46,1.75-3.55.45-.65-2.05-2.28.78-2.15.34,0,.78-2,1.16-3.12s.77-2.21,1.16-3.32.76-2.21,1.15-3.32.76-2.21,1.15-3.32.76-2.21,1.15-3.32a16.69,16.69,0,0,0,1.11-3.33c.74-6.47,3.47-12.49,3.72-19.17a44.1,44.1,0,0,1,2.25-13.64c.68-1.81-.39-2.8-.49-4.08-.31-4.15,1.63-8,1.26-12-.27-3.11.25-6.17-.83-9.4-.77-2.33-1.31-5.64.85-8.15a35.38,35.38,0,0,0-1.63-5.83c-1.21-2.58.47-5.67-1.63-8,2.41-1.51-.09-3,0-4.53a20.19,20.19,0,0,0-.36-4.72c-.33-1.63-1.19-3.17-1.46-4.8-1.27-7.87-4.35-15.18-6.8-22.69-1.62-5-4.46-9.36-6.57-14.1a117.37,117.37,0,0,0-12.13-21c-4.14-5.71-8.22-11.5-12.58-17.06a17.85,17.85,0,0,0-5.14-4.44c-2.58-1.48-4.51-4.12-6.61-6.36-8.05-8.59-17.74-15.11-27.45-21.55A119.49,119.49,0,0,0,281,48c-4.47-2.27-9.19-4.06-13.66-6.33a69.72,69.72,0,0,0-14.18-5c-5.23-1.35-10.26-3.95-15.89-3.66-3.51-1.84-7.75-1-11.22-3.06a3.22,3.22,0,0,0-1.54-.19c-7.82-.14-15.57-1.68-23.43-1.14-3.61.25-7.25-.1-10.85.1-2.22.13-4.43-.71-6.72.85-1.73,1.17-4.24-.16-6.61,1-2.07,1-5,.73-7.6,1.17-5.22.87-10.21,2.57-15.34,3.7a57.63,57.63,0,0,0-7.73,2.29,230.21,230.21,0,0,0-25.28,11A177.69,177.69,0,0,0,96.5,64.56a183.24,183.24,0,0,0-19,16.93,30.43,30.43,0,0,1-4.78,4.05A16.77,16.77,0,0,0,67,92.28c-1.12,2.4-3.37,3.53-4.58,5.68s-2.71,3.94-4,5.94c-3.32,5.09-6.82,10-9.39,15.63-2.22,4.85-5.27,9.36-7.51,14.26a100.25,100.25,0,0,0-7.36,20.84c-.91,4.27-2.53,8.38-3.56,12.65-.32,1.34-.45,2.68-.73,4s-1.06,2.61-1,3.89c.16,3.55-.81,7-1.42,10.35-.79,4.27,0,8.57-1,12.59-1.38,5.49-.64,10.94-1,16.4,0,.3-.32.59-.8,1.46-.65-8.86.09-17.21-.5-26-.5.82-.86,1.13-.83,1.39.74,6.25-1.1,12.34-1.14,18.54,0,.36-.42.72-.65,1.09a3.94,3.94,0,0,1-.75-.78,4.54,4.54,0,0,1-.71-1.86c-.06-4.52-.21-9.05,0-13.56.13-2.38,1.29-4.62,1.08-7.15a18.23,18.23,0,0,1,.88-7.19c1-3.09.65-6.57,1.29-9.8.72-3.62,1.94-7.15,2.81-10.75a30.92,30.92,0,0,0,.43-4.32c-2.31,1.58-1.39,4.35-3.3,5.6-.72-3.81,1.35-7.08,2.44-10.4,3.75-11.44,8.05-22.74,13.94-33.28,4.3-7.7,8.73-15.36,14.24-22.36,4.88-6.19,9.58-12.46,14.94-18.27C71.28,74.29,73.23,71.19,76,69c7-5.44,13.2-11.79,20.67-16.77,6.66-4.43,13.39-8.68,20.23-12.81,5.4-3.26,11.28-5.18,16.84-7.88,5.8-2.81,11.94-4.43,17.89-6.65,3.46-1.3,7.25-1.67,10.81-2.76,4.9-1.49,10.12-1.4,14.95-3.2a4.3,4.3,0,0,1,1.08,0c4-.35,8-.86,12-1s8,0,11.95,0c4.52,0,9.05-.14,13.57,0s9.23.16,13.63,1.2,8.76,1.37,13.06,2.47c4.11,1,8.37,1.79,12.36,3,6.53,2,13,4.35,19.35,7a124.83,124.83,0,0,1,15,7c7.34,4.23,14.79,8.23,21.73,13.21,5.47,3.92,10.37,8.55,16.1,12.11a21.52,21.52,0,0,1,3.49,3.4c6.94,7,14.25,13.66,20.3,21.46A246.15,246.15,0,0,1,366.64,111c2.12,3.47,3.83,7.15,6.18,10.52,2.54,3.66,3.85,8.17,5.51,12.33,1.79,4.48,4.13,8.88,4.62,13.83,2,1.63.46,4.29,2,6.28,1.17,1.55.7,4.17,1.38,5.91,1.51,3.84,1.52,7.94,2.92,11.8,1.15,3.18.86,6.88,1.26,10.35.31,2.75.86,5.48,1,8.24s-.65,6,.19,8.63c1.74,5.49,1.28,11.07.69,16.39-.55,5,0,10-1.07,14.72-.81,3.47-.35,6.92-1.22,10.3s-1,6.9-2,10.05c-1.81,5.79-3.13,11.71-4.76,17.52-3.38,12.09-8.76,23.2-14.64,34.12a189,189,0,0,1-11,18.23c-3.39,4.87-7.75,9-11.38,13.78a127.33,127.33,0,0,1-11.57,12.55,170.43,170.43,0,0,1-28.13,22.56,210.34,210.34,0,0,1-28.38,15.33c-6.4,2.84-13.28,4.62-19.95,6.87a129.22,129.22,0,0,1-17.72,4.51c-4.59.85-9.25,1.27-13.75,2.21-7.33,1.54-14.59.33-21.85.85-.41,0-.85-.37-1.27-.57.39-.39.71-1,1.17-1.11a23.65,23.65,0,0,1,3.07-.47c3.19-.46,6.53.95,9.64-.72-3.21-.12-6.42-.32-9.63-.34-6.82-.06-13.64,0-20.48-.45,3.59-.9,7.24-.59,10.87-.64s7.12,0,10.7-.41c-4.27-1.24-9,.29-13.66-2.86h6.49c4.53,0,9.06.14,13.57,0,4.75-.19,9.48-.63,14.21-1.09,1.14-.1,2.22-.79,3.36-1a6,6,0,0,1,2,.36,12.18,12.18,0,0,0-1.57.8c-.15.1-.11.48-.15.74,1.76.08,3.69,1.14,5.11-.86a40.58,40.58,0,0,0,4.13-.05c.46-.05.87-.67,1.3-1,5.26.19,9.88-2.4,14.84-3.49a22.45,22.45,0,0,0,6.58-2.39c.78-.46,2.86,0,2.52-2a1.65,1.65,0,0,1,.94-.3c.63.09,1.46.67,1.82.44,4.44-2.8,9.75-3.58,14.23-6.3,4.75-2.88,9.77-5.31,14.46-8.27a105.09,105.09,0,0,0,10.6-7.2c2.67-2.17,5.59-4,8.28-6.18,7.85-6.28,14.81-13.52,21.77-20.74,3.62-3.76,6.71-8,10-12.12.13-.17-.16-.79-.38-1.11-.4-.58-.88-1.13-1.52-.19a115,115,0,0,1-17.36,20.41A220.67,220.67,0,0,1,308.47,358a213,213,0,0,1-27.9,16.63,97.69,97.69,0,0,1-9.34,3.65c-.27.1-.66-.11-1-.18.19-.3.32-.72.59-.86a84,84,0,0,1,8.53-4.29,10.78,10.78,0,0,0,4.45-3.55c2.1-2.54,5.46-3.37,8.11-5.2,4.78-3.3,9.62-6.49,14.38-9.82s9-7.29,13.43-11a91.24,91.24,0,0,0,9-8.25c3.68-4,7-8.29,10.39-12.49.27-.34.18-1,.25-1.45-.38.07-.9,0-1.13.24-2.34,2.27-4.6,4.61-6.93,6.88-2.85,2.77-5.48,5.6-9.72,6.74-2.11.57-3.69,3.31-5.4,5.17A2.88,2.88,0,0,1,313.34,341.38ZM372,280.19v-1.77c-.36.28-1,.51-1,.86-.33,1.42-2.15,2.56-.85,4.29a.94.94,0,0,0,.36.16,17.31,17.31,0,0,0,1.53-5.31c2.07-1.28,2.28-3.29,13.15-51.83-.63,1.06-1.11,1.53-1.17,2-.42,3.63-.71,7.28-1.15,10.92a13.52,13.52,0,0,1-.88,2.33,17,17,0,0,0-1.2,4.36c-.14,5.21-2.36,9.85-3.8,14.7-1,3.36-2.33,6.63-3.36,10-.18.57.37,1.37.58,2.06.37-.29.92-.5,1.06-.87,1.14-3,2.63-5.88,3.2-8.95,1-5.35,3.2-10.37,3.7-15.88.23-2.58,1.79-5.14,1.76-7.86s1.77-5.31,1.21-8.23c-.17-.9.48-1.94.66-2.93.05-.3-.22-.65-11.59,44.72C372.09,274.26,371.89,276.28,372,280.19ZM224.29,393.47c0-.36,0-.71,0-1.07-3.94,0-7.87,0-11.8,0a4.36,4.36,0,0,0-1.24.43c4.38.63,8.7.66,20.33-.45.08-.36.15-.72.23-1.08-2.25,0-4.49,0-6.73,0-.27,0-.54.35-.82.53.36.18.7.5,1.06.51C227.43,392.43,229.52,392.4,224.29,393.47ZM25.52,184.13c0-.15-.2-1.16-.37-2.17-1.47.77-.5,2.09-.68,3.13a13.32,13.32,0,0,0,0,2.68c0,.13.29.38.36.35.26-.09.67-.26.68-.43C25.56,186.81,25.52,185.91,25.52,184.13ZM224.35,395.66l1.94-.38c-.53-1.46-1.73-.47-2.59-.67a8,8,0,0,0-2.13,0c-.13,0-.38.28-.36.35.09.26.26.67.43.69C222.34,395.71,223.06,395.66,224.35,395.66Zm128-82.54c.18.45.21.71.3.73s.59.13.71,0a8.14,8.14,0,0,0,1.26-1.55c.12-.22-.09-.63-.15-.95a2.88,2.88,0,0,0-1.08.39A9.76,9.76,0,0,0,352.32,313.12Zm6.75-7.49c-.16-.47-.18-.73-.28-.76s-.59-.15-.71,0a8.14,8.14,0,0,0-1.26,1.55c-.13.21.07.63.13.95.36-.11.83-.12,1.08-.35A9.51,9.51,0,0,0,359.07,305.63Zm4.36-7.64c-.18-.45-.22-.71-.31-.73s-.59-.13-.71,0a8.09,8.09,0,0,0-1.25,1.55c-.12.22.09.63.15.95.36-.12.83-.15,1.08-.39A9.76,9.76,0,0,0,363.43,298Zm22.68-81.46a9.46,9.46,0,0,0,0-1.6c0-.16-.46-.25-.71-.37,0,1.32,0,2.64,0,4,.24-.14.66-.24.69-.41A9.37,9.37,0,0,0,386.11,216.53Z"/><path class="cls-1" d="M225.46,78.66c6.88-1,14.22,1.38,21,4.53a43.61,43.61,0,0,1,19.1,17.16c1.94,3.18,3.43,6.53,5.07,9.84a62.6,62.6,0,0,1,4.91,12.63c1.12,4.44,2.38,8.81,3.21,13.35.88,4.79.06,9.63,1.05,14.2,1.35,6.22.4,12.41,1,18.56.21,2.12-1.63,4.1-.13,6.19a1,1,0,0,1-.24.93c-2.55,1.53-1.75,4-1.93,6.28-.16,2.07.6,4.21-.7,6.22-1.13,1.75.59,4.3-1.44,5.9.24,5.44-3.38,10.34-2.22,15.93.12.57-.4,1.26-.58,1.9a41.43,41.43,0,0,0-1.69,7.48c-.32,3.31-1.68,6.5-2.52,9.76-.89,3.43-2.26,6.68-3,10.21s-3.15,7-4.69,10.49c-1.14,2.61-2,5.36-2.89,8-1.35,3.91-2.4,8-4.7,11.63-2.49,3.93-4.11,8.41-6.26,12.57A186.29,186.29,0,0,1,233,307.21c-2.88,3.94-5.92,7.74-9.11,11.46s-6.35,7.15-9.7,10.58a78.52,78.52,0,0,1-10.61,8.45c-1.05.75-1.77,2.61-3.45.78-.12-.12-1,.53-1.54.72a42.68,42.68,0,0,1-8.31,2.29c-8.13,1-14.1-3.5-20.37-7.3-8.09-4.89-12.29-12.63-15.1-21.3a48.2,48.2,0,0,1-1.23-7.12c-.67-3.86-.15-7.95-2-11.62-.22-.43,0-1.07-.05-1.61-.19-1.87,1.5-3.46.18-5.71-.87-1.47-.32-3.89-.13-5.86.26-2.78-.64-5.57.76-8.36,1.23-2.45-.76-5.66,1.37-8.11-.32-3.53.75-6.81,1.75-10.12a1.46,1.46,0,0,0-.35-1.12c-.32-.38-.87-.91-1.23-.85-3.06.51-4.65-1.68-6.76-3.24-4.65-3.41-7.85-8.1-11.56-12.33-.27-.31.09-1.2.21-1.81.16-.83.43-1.65.53-2.48,0-.24-.34-.52-.54-.79a5.51,5.51,0,0,0-.5.88c-.17.52-.57,1.81-.88.74-.67-2.27-2.74-3.91-2.49-6.63.17-1.79-.62-3.67-1-5.51-1.49-7.55-1.4-9.58-.06-17.55.4-2.37.65-4.79,1-7.16a104.57,104.57,0,0,1,4.65-18.21,167.5,167.5,0,0,1,10.42-25,222.89,222.89,0,0,1,14.18-24c2.31-3.37,4.52-6.81,6.78-10.21a59.08,59.08,0,0,1,4-5.92c3.47-4,7.17-7.88,10.7-11.87,1.73-2,4.26-3.27,5-6,2.77-.76,4.25-3.14,6-5s4.48-2.46,6.56-4c.47-.34,1.61.27,2.44.45a10.25,10.25,0,0,0-.7,1.86,8.14,8.14,0,0,0,.06,1.84c.58-.19,1.63-.32,1.67-.6.31-2,2.17-2.75,3.28-4.07.78-.92.83-.85.36-3.1a1.49,1.49,0,0,1,.6-1.12c.81-.65,8.46-2.92,9.63-2.93ZM135.22,197.48c0,2.42,0,4,.05,5.5,0,.2.66.52,1,.48s.65-.42,1-.65c-1.92-1.12-.12-3.35-3.11,5l1.09-.18c0-1,.05-2,0-3a3.54,3.54,0,0,0-.5-1c-.19.26-.52.52-.54.8C134.1,205.46,134.13,206.61,135.22,197.48Zm135.76-46c-1.41,5.2-.93,10.45-1.06,15.68,0,.17.34.36.52.53.18-.28.52-.56.52-.84,0-5.12,0-10.25-2.15,6.2l1.09-.2c0-1.54,0-3.09,0-4.63,0-.18-.33-.35-.51-.53-.18.27-.52.54-.53.81C268.78,170,268.81,171.52,271,151.47Zm-10.39,65c.21-.23.5-.41.61-.68,1.5-3.76,1.31-8,3.29-11.63,1.27-2.3,1.06-4.73,1-7.16,0-.36-.34-.72-.52-1.08a3.57,3.57,0,0,0-.53.86c-1.1,4.61-2.26,9.2-3.23,13.83-.41,1.91-2.22,3.72,5.47-21.81-.63.84-1.06,1.17-1.13,1.57-.19,1,.18,2.55-.38,3-1.58,1.29.82,1.65.34,2.53a5.57,5.57,0,0,0,1.06-1.4,21.54,21.54,0,0,0,1.06-3.85C267.74,190.22,267.19,189.68,260.59,216.46Zm-95,77.2v9.77a7,7,0,0,0,.08,2.68c2,4.48,2.38,9.44,4.2,14a31.79,31.79,0,0,0,7.3,11.6c.89.85,2.44,1.93,3.32,1.67,2.79-.85,5.87-.62,8.42-1.88a38.56,38.56,0,0,0,7.3-4.79c7.16-5.89,12.08-10.75,16.33-16.56,1-1.34,1.25-3.28,2.39-4.4a55,55,0,0,0,9.48-12.94c2.76-5,6.05-9.72,8.66-14.85,1.61-3.16,2.73-6.48,4.24-9.65a212.24,212.24,0,0,0,9.12-21.19c2.84-8.06,6-16,8.23-24.27.35-1.29.48-3.18,1.36-3.68,2.28-1.31-.42-2.5.32-4,2.14-4.23,2.95-9,3.75-13.63a57.6,57.6,0,0,1,1.42-7.56c1.08-3.49,2.14-6.92,1.85-10.63-.09-1.08-.46-2.59.09-3.17,1.82-1.93.6-4.13,1-6.15a40.61,40.61,0,0,0,1-6.6c.13-7.78.08-15.56,0-23.34a16.13,16.13,0,0,0-.53-3.57c-.34-1.4-1.85-3.12,1.15-3.33-.07-.34,0-.79-.25-1-.4-.42-1.36-.7-1.36-1.05,0-1.6-.89-3.07-1-4.45-.11-1.82-1.14-3.23-1.34-5-.16-1.38-.07-2.71-.13-4-.07-1.45-1.84-2.76-2.66-4.25a6.6,6.6,0,0,1-.38-2.55c-.06-.71.23-1.89-.09-2.08-3.12-1.84-1.87-5.7-4.12-8.19-2.78-3.07-4.48-7.12-6.67-10.73a12.9,12.9,0,0,0-12.07-6.64c-2.35,0-4.7,0-7.06,0a6.36,6.36,0,0,0-2.5.48c-3.33,1.59-6.61,3.26-9.9,4.93A29.94,29.94,0,0,0,207.79,99c-4.4.49-6.28,4.36-9,7a97.36,97.36,0,0,0-7.88,8.58c-4.77,5.8-9.62,11.49-14.2,17.47s-7.88,12.74-12.07,18.94c-1.77,2.62-2.49,6-4.4,8.44-2.06,2.66-2.46,5.9-3.94,8.74s-3.84,5.29-3.67,8.77c-3,3.27-2.8,7.89-4.91,11.54a4.13,4.13,0,0,0-.48,2.49c.3,2.2-.65,4-1.45,5.93a10.94,10.94,0,0,0-.74,2.94c-.13,1.07.41,2.61-.14,3.16-1.57,1.59-.16,3.84-1.09,5-1.66,2,.24,3.48.1,5.16-.1,1.19-.48,2.36-.57,3.55a27.85,27.85,0,0,0-.13,6.18c.4,2.48,1.3,4.88,1.9,7.35,1.56,6.47,4.6,12.21,9.92,16.5,1,.76,1.68.2,2.22-.56a4.15,4.15,0,0,0,.77-1.84c.32-3.58,1.77-6.9,2.83-10.24a164.13,164.13,0,0,1,7-17.7c2.21-4.88,4.79-9.62,7.48-14.26,1.69-2.93,3.48-5.76,4.42-9,.13-.48.21-1.11.55-1.37.65-.51,1.62-.66,2.14-1.25.28-.31-.4-1.48-.12-1.8.52-.58,1.47-.75,2.16-1.23s1.47-1,1.48-1.51c.06-3.36,2.86-4.72,4.69-6.77,4.57-5.1,10.6-6.75,17.16-7,1.94-.08,2.19-.05,2.77,2.11.7,2.62,1.94,5.16,1.72,8-.05.62-.31,1.7-.64,1.76-3.18.65-4.71,3.56-7.17,5.05-6.25,3.77-10.43,9.44-13.74,15.47-5.47,10-10,20.44-14.93,30.7-.14.3-.44.63-.4.91.54,3.86-2.08,6.75-3.07,10.14-.42,1.45,0,2.19,1.41,1.83,3.58-.93,7.13-2,10.68-3,7.88-2.34,15.63-4.84,23.05-8.61,4.33-2.2,8.83-4,13-6.58,2-1.21,4.25-3.19,7.13-2.36.32.09.83.28.85.47a3,3,0,0,1-.22,1.45c-.12.31-.47.54-.75.78-3.49,3-8.14,4.58-10.31,9.1-.21.43-1.64.05-1.66,1.41,0,3.07-.1,3.1-2.4,4.14-1.36.62-3.19.78-4.09,1.79-2,2.24-4.83,2.7-7.28,3.49-3.71,1.19-7.61,1.71-10.65,4.48-.1.09-.37,0-.52,0a108.9,108.9,0,0,1-13.31,3.27c-2.58.27-5.14.69-7.7,1.09a1,1,0,0,0-.7.65c-.28,1.33.38,2.72-.76,4.09-.41.49-2,1.76-.8,2.86,1.81,1.72-.75,2.34-.77,3.73-.09,6.91-.6,13.81-1,20.72C165.59,291.85,165.63,292.75,165.63,293.66Zm-8.64,9.8-1.13.13c0,2.13-.67,4.59.17,6.31,1,2.09.55,4.11,1.06,6.09a8.16,8.16,0,0,0,.94,1.77c.17.28.38.53.57.79.17-.47.57-1,.48-1.41C158.1,312.64,156.5,308.25,157,303.46Zm102.67-85.91c-2.21,2.11-.88,5.2-2.74,7.18-.14.15.49,1,.76,1.58.45-.36,1.24-.68,1.3-1.09C259.32,222.77,261,220.46,259.66,217.55Zm9.15-37.37a8.52,8.52,0,0,0-2.12,7.28c0,.31.67.79,1,.79s1-.48,1-.77C268.85,185.37,268.81,183.24,268.81,180.18Zm-15.14,58c-.34.21-1.08.44-1.09.69,0,1.23.06,2.41-1.11,3.28-.15.11.21.9.34,1.37.37-.25.9-.43,1.08-.78.65-1.29,1.2-2.64,1.73-4A7.38,7.38,0,0,0,253.67,238.16Zm1.69-4.51c.92-1,1.36-1.31,1.47-1.69.18-.65-.09-1.53.26-2,.66-.87,1.41-1.55.31-2.57-.54.82-1.13,1.62-1.61,2.49a9.06,9.06,0,0,0-.9,2.24C254.8,232.49,255.13,233,255.36,233.65Zm-120.14-6.27a9.37,9.37,0,0,0,0-1.59c0-.16-.46-.25-.71-.37,0,1.32,0,2.64,0,4,.24-.13.66-.23.69-.41A9.35,9.35,0,0,0,135.22,227.38Zm5.43-39.57c-.1-.21-.4-.86-.71-1.5-.12.65-.29,1.31-.36,2a5.29,5.29,0,0,0,0,1.59c0,.18.43.34.68.42.08,0,.34-.22.35-.35C140.68,189.41,140.65,188.87,140.65,187.81Zm129.52-40.75h.54v-4.34h-.54Z"/><path class="cls-1" d="M113.42,371.16c-.22.2-.51.63-.66.58a11.12,11.12,0,0,1-2.8-1.07c-5.69-3.73-11.38-7.46-17-11.31-2.15-1.48-4-3.36-6.1-4.94-5.85-4.44-10.66-10-16.06-14.9-6.19-5.64-11.16-12.31-16.31-18.78-4.41-5.54-7.79-11.9-11.58-17.92-.24-.39,0-1.07,0-1.61.44.26,1,.41,1.29.78q5.91,8.65,11.74,17.34a16.78,16.78,0,0,0,1.7,2.54c3.21,3.22,5.61,7.09,8.5,10.54,3.46,4.14,7.59,7.72,11.4,11.57,3.58,3.61,8,6.28,11.63,9.7,7.13,6.66,15.66,11.15,23.49,16.72A5.52,5.52,0,0,1,113.42,371.16Z"/><path class="cls-1" d="M162.33,390.69c-4.33,1.13-8.07-.38-11.69-1.66-2.81-1-6-1.1-8.44-3.12-.36-.29-1.07-.18-1.4-.48a5.62,5.62,0,0,1-.91-1.5,5.53,5.53,0,0,1,1.46,0c2.92.75,5.27,3.05,8.46,3.08,1.54,2.14,4.24.54,6.24,2C157.66,390.21,160.2,390.17,162.33,390.69Z"/><path class="cls-1" d="M182.81,394.47a14.41,14.41,0,0,1-6.93-.91c-1.43-.5-3.1-.32-4.65-.45,1.6-1.38,3.52-.46,5.28-.68,2.08-.27,3.75,1.67,6,1.13,1.11-.27,2.38.18,3.58.31C185.1,395.27,183.63,394.23,182.81,394.47Z"/><path class="cls-1" d="M150.68,383.24c.07.14-.05-.19-.26-.44-.38-.44-.77-1.12-1.23-1.18-.63-.09-1.39.54-2,.39-.39-.09-.49-1.08-.89-1.52s-.84-.41-1.28-.61c.47-.17,1-.57,1.4-.47,2.59.65,5.16,1.4,7.72,2.16.2.06.34.44.43.7,0,.07-.22.32-.36.35C153.1,382.84,152,383,150.68,383.24Z"/><path class="cls-1" d="M205.41,381.73l-3.77-.55c1-1.41,2.45-.6,3.67-.67a36.92,36.92,0,0,1,4.68.32C208.64,382.56,206.75,380.78,205.41,381.73Z"/><path class="cls-1" d="M139,379.41a3,3,0,0,0-2.53-2.56c.3-.25.64-.72.9-.69a9.47,9.47,0,0,1,2.33.69,16.4,16.4,0,0,1,1.85,1.07c-.73.36-1.46.72-2.18,1.1A1.55,1.55,0,0,0,139,379.41Z"/><path class="cls-1" d="M164.82,386.25c-.95-.46-2-.93-3-1.47-.19-.1-.23-.48-.35-.72.31-.12.67-.39.91-.31.94.29,1.81.76,2.75,1a20.19,20.19,0,0,0,2.49.4Z"/><path class="cls-1" d="M238.4,389.15c.27-.37.49-1,.83-1,1.29-.29,2.77.52,3.91-.87.19-.23,1.15.16,1.75.26-.35.55-.7,1.11-1.06,1.66Z"/><path class="cls-1" d="M259.76,371.42c2.42-1.22,4.43-2.59,6.9-1.18C264.38,370,262.57,372.51,259.76,371.42Z"/><path class="cls-1" d="M42.15,301.59c-.91-1.85-1.72-3.48-2.47-5.13,0-.08.45-.57.6-.54.75.19,2.72,3.81,2.6,4.76C42.86,300.89,42.58,301.07,42.15,301.59Z"/><path class="cls-1" d="M138.73,383c-2.23,2-3.6-.41-5.31-.5-.13,0-.25-.24-.37-.36.28-.18.6-.56.82-.51C135.45,382,137,382.45,138.73,383Z"/><path class="cls-1" d="M313.34,342.05c-1,.83-2,1.73-3.14,2.56-.16.12-.62-.13-.92-.26a.46.46,0,0,1-.17-.35c1.05-.88,2.09-1.78,3.19-2.6.23-.16.69,0,1,0A6.09,6.09,0,0,1,313.34,342.05Z"/><path class="cls-1" d="M129.83,372.7c.73.2,1.77.23,1.91.6a4.44,4.44,0,0,1,0,2.45c-.05.22-.9.25-1.38.37,0-.37,0-.75,0-1.12s0-.88-.15-1a4.67,4.67,0,0,0-1.38-.46Z"/><path class="cls-1" d="M119.08,366.83c-.88.64-1.58,1.21-2.34,1.66-.17.1-.58-.2-.88-.32.66-.61,1.3-1.25,2-1.79C118,366.28,118.44,366.58,119.08,366.83Z"/><path class="cls-1" d="M112.24,364.47c.27-.53.49-1,.72-1.38.47.61,1.17,1.18,1.32,1.86.07.34-.88.89-1.37,1.35Z"/><path class="cls-1" d="M101.71,356.11c-.67.25-1.11.54-1.24.44-.7-.55-1.32-1.2-2-1.81.3-.11.71-.4.88-.3C100.15,354.9,100.85,355.48,101.71,356.11Z"/><path class="cls-1" d="M21.18,169.77c0-1.15,0-2.31,0-3.46,0-.27.35-.53.53-.8a3.05,3.05,0,0,1,.5,1.05c.07,1,0,2,0,3Z"/><path class="cls-1" d="M22.27,165.51a19.51,19.51,0,0,1,0-3.06c.08-.47.68-.85,1-1.28a19.51,19.51,0,0,1-.05,3.06C23.23,164.7,22.63,165.09,22.27,165.51Z"/><text class="cls-2" transform="translate(428.1 225.51)">ÓVÁROS</text><text class="cls-3" transform="translate(427.67 351.06)">BOUTIQUE</text></svg>
