<?xml version="1.0" encoding="utf-8"?>
<!-- Generator: Adobe Illustrator 26.2.1, SVG Export Plug-In . SVG Version: 6.00 Build 0)  -->
<svg version="1.1" id="Layer_1" xmlns="http://www.w3.org/2000/svg" xmlns:xlink="http://www.w3.org/1999/xlink" x="0px" y="0px"
	 viewBox="0 0 224.8 58.6" width="224.8" style="enable-background:new 0 0 224.8 58.6;" xml:space="preserve">
<style type="text/css">
	.st0{fill:#003B95;}
	.st1{fill:#FFFFFF;}
</style>
<path class="st0" d="M219.4,58.6H5.4c-3,0-5.4-2.4-5.4-5.4V5.4C0,2.4,2.4,0,5.4,0h214c3,0,5.4,2.4,5.4,5.4v47.9
	C224.8,56.2,222.4,58.6,219.4,58.6z"/>
<path class="st1" d="M93,19.1c0-0.5,0.2-1.1,0.5-1.5c0.3-0.4,0.7-0.8,1.2-1c0.5-0.2,1.1-0.3,1.6-0.2c0.5,0.1,1,0.4,1.4,0.8
	c0.4,0.4,0.6,0.9,0.7,1.4c0.1,0.5,0,1.1-0.2,1.6c-0.2,0.5-0.6,0.9-1,1.2c-0.5,0.3-1,0.5-1.5,0.5c-0.4,0-0.7-0.1-1-0.2
	c-0.3-0.1-0.6-0.3-0.9-0.6c-0.3-0.3-0.5-0.6-0.6-0.9C93.1,19.8,93,19.5,93,19.1L93,19.1z M138.9,40.1c0.5,0,1.1-0.2,1.5-0.5
	c0.5-0.3,0.8-0.7,1-1.2c0.2-0.5,0.3-1.1,0.2-1.6c-0.1-0.5-0.4-1-0.8-1.4c-0.4-0.4-0.9-0.6-1.4-0.8s-1.1-0.1-1.6,0.2
	c-0.5,0.2-0.9,0.6-1.2,1c-0.3,0.5-0.5,1-0.5,1.5c0,0.7,0.3,1.4,0.8,1.9C137.5,39.8,138.2,40.1,138.9,40.1L138.9,40.1z M48.1,23.1
	c-1.7,0-3.3,0.5-4.7,1.5c-1.4,1-2.5,2.3-3.1,3.9c-0.6,1.6-0.8,3.3-0.4,4.9c0.3,1.7,1.2,3.2,2.4,4.4c1.2,1.2,2.7,2,4.4,2.3
	c1.7,0.3,3.4,0.1,4.9-0.5c1.6-0.6,2.9-1.7,3.8-3.1c0.9-1.4,1.4-3.1,1.4-4.7c0-1.1-0.2-2.3-0.6-3.3c-0.4-1.1-1.1-2-1.9-2.8
	c-0.8-0.8-1.8-1.4-2.8-1.8C50.4,23.2,49.3,23,48.1,23.1L48.1,23.1z M48.1,36.2c-2.4,0-4-1.9-4-4.6s1.6-4.5,4-4.5c2.4,0,4,1.9,4,4.5
	S50.5,36.2,48.1,36.2z M87.7,32.1c-0.2-0.3-0.4-0.6-0.7-0.9L86.9,31l0.2-0.1c0.3-0.3,0.5-0.6,0.7-0.9l4.4-6.6h-5.3l-3.3,5.1
	c-0.1,0.2-0.3,0.3-0.5,0.3C82.8,29,82.6,29,82.4,29h-0.8v-9.7c0-1.9-1.2-2.2-2.5-2.2h-2.2v22.9h4.7v-6.9h0.4c0.5,0,0.9,0.1,1.1,0.4
	l2.6,4.9c0.2,0.5,0.6,1,1.1,1.3c0.5,0.3,1.1,0.4,1.7,0.3h3.6l-2.7-4.5L87.7,32.1z M110.7,23.1c-0.9,0-1.8,0.1-2.6,0.5
	c-0.8,0.3-1.6,0.9-2.2,1.5l-0.3,0.3l-0.1-0.4c-0.2-0.5-0.5-0.9-0.9-1.2c-0.4-0.3-1-0.4-1.5-0.3H101v16.5h4.7v-7.6
	c0-0.7,0.1-1.4,0.3-2c0.2-0.8,0.7-1.6,1.4-2.1c0.7-0.5,1.5-0.8,2.4-0.8c1.5,0,2,0.8,2,2.8v7.2c-0.1,0.3,0,0.7,0.1,1
	c0.1,0.3,0.3,0.6,0.5,0.9c0.2,0.2,0.5,0.4,0.9,0.5c0.3,0.1,0.7,0.1,1,0.1h2.2V29.4C116.6,25.3,114.5,23.1,110.7,23.1L110.7,23.1z
	 M95.8,23.4h-2.2v16.5h4.7v-14c0.1-0.3,0-0.7-0.1-1c-0.1-0.3-0.3-0.6-0.5-0.9c-0.2-0.2-0.5-0.4-0.9-0.5
	C96.5,23.4,96.1,23.4,95.8,23.4L95.8,23.4z M66.6,23.1c-1.7,0-3.3,0.5-4.7,1.5c-1.4,1-2.5,2.3-3.1,3.9c-0.6,1.6-0.8,3.3-0.4,4.9
	c0.3,1.7,1.2,3.2,2.4,4.4c1.2,1.2,2.7,2,4.4,2.3c1.7,0.3,3.4,0.1,4.9-0.5c1.6-0.6,2.9-1.7,3.8-3.1c0.9-1.4,1.4-3.1,1.4-4.7
	c0-1.1-0.2-2.3-0.6-3.3c-0.4-1.1-1.1-2-1.9-2.8c-0.8-0.8-1.8-1.4-2.8-1.8C68.9,23.2,67.7,23,66.6,23.1L66.6,23.1z M66.6,36.2
	c-2.3,0-4-1.9-4-4.6s1.6-4.5,4-4.5s4,1.9,4,4.5S69,36.2,66.6,36.2z M167.3,23.1c-1.7,0-3.3,0.5-4.7,1.5c-1.4,1-2.5,2.3-3.1,3.9
	c-0.6,1.6-0.8,3.3-0.4,4.9c0.3,1.7,1.2,3.2,2.4,4.4c1.2,1.2,2.7,2,4.4,2.3c1.7,0.3,3.4,0.1,4.9-0.5c1.6-0.6,2.9-1.7,3.8-3.1
	c0.9-1.4,1.4-3.1,1.4-4.7c0-1.1-0.2-2.3-0.6-3.3c-0.4-1.1-1.1-2-1.9-2.8c-0.8-0.8-1.8-1.4-2.8-1.8C169.6,23.2,168.4,23,167.3,23.1
	L167.3,23.1z M167.3,36.2c-2.4,0-4-1.9-4-4.6s1.6-4.5,4-4.5s4,1.9,4,4.5S169.7,36.2,167.3,36.2z M132.2,23.4c-0.4,0-0.8,0-1.1,0.2
	c-0.3,0.2-0.6,0.5-0.8,0.8l-0.1,0.2l-0.2-0.2c-1.2-1-2.8-1.5-4.3-1.4c-4.4,0-7.4,3.3-7.4,8.2c0,4.9,3.1,8.4,7.5,8.4
	c1.3,0.1,2.6-0.3,3.6-1.1l0.4-0.3v0.5c0,2.2-1.4,3.4-4,3.4c-1.1,0-2.1-0.2-3.2-0.6c-0.2-0.1-0.4-0.2-0.6-0.2c-0.2,0-0.4,0-0.6,0.1
	c-0.2,0.1-0.4,0.2-0.5,0.4c-0.1,0.2-0.2,0.4-0.3,0.6l-0.9,2.3l0.3,0.2c1.8,0.9,3.8,1.3,5.8,1.3c4,0,8.7-2.1,8.7-7.8V23.4H132.2z
	 M126.5,35.5c-2.6,0-3.5-2.2-3.5-4.3c0-0.9,0.2-4,3.2-4c1.5,0,3.5,0.4,3.5,4.1C129.7,34.7,128,35.5,126.5,35.5z M35.5,28.2l-0.7-0.4
	l0.6-0.5c0.6-0.5,1.1-1.2,1.4-1.9c0.3-0.7,0.5-1.6,0.5-2.4c0-3.6-2.8-5.9-7.1-5.9h-5.5c-0.6,0-1.2,0.3-1.6,0.7
	c-0.4,0.4-0.7,1-0.7,1.6v20.4h7.9c4.8,0,7.9-2.6,7.9-6.7c0-1-0.2-2-0.7-2.9C37.1,29.5,36.4,28.7,35.5,28.2L35.5,28.2z M26.8,22.4
	c0-1.1,0.5-1.6,1.4-1.6h2c0.4,0,0.7,0,1.1,0.1c0.3,0.1,0.6,0.3,0.9,0.6c0.3,0.3,0.5,0.6,0.6,0.9c0.1,0.3,0.2,0.7,0.1,1.1
	c0,0.4,0,0.7-0.1,1.1c-0.1,0.3-0.3,0.7-0.6,0.9c-0.3,0.3-0.6,0.5-0.9,0.6c-0.3,0.1-0.7,0.2-1.1,0.2h-3.5V22.4z M30.6,36h-3.8v-4.6
	c0-1,0.4-1.5,1.2-1.6h2.6c0.8,0,1.5,0.4,2.1,1c0.5,0.6,0.8,1.3,0.8,2.1c0,0.8-0.3,1.6-0.8,2.1C32.2,35.6,31.4,36,30.6,36z
	 M196.9,23.1c-1,0-1.9,0.2-2.8,0.6c-0.9,0.4-1.6,1-2.2,1.8l-0.3,0.4l-0.3-0.5c-0.4-0.8-1.1-1.4-1.9-1.9c-0.8-0.4-1.7-0.6-2.6-0.5
	c-0.8,0-1.6,0.2-2.4,0.5c-0.7,0.3-1.4,0.8-2,1.4l-0.4,0.5l-0.2-0.6c-0.2-0.5-0.5-0.9-0.9-1.1c-0.4-0.3-0.9-0.4-1.4-0.3h-2v16.5h4.5
	v-7.3c0-0.6,0.1-1.3,0.2-1.9c0.4-1.8,1.6-3.6,3.6-3.5c1.2,0.1,1.8,1.1,1.8,2.9v9.7h4.5v-7.3c0-0.7,0.1-1.3,0.2-2
	c0.4-1.7,1.6-3.4,3.5-3.4c1.4,0,1.9,0.8,1.9,2.9v7.4c0,1.7,0.7,2.4,2.4,2.4h2.1V29.4C202.4,25.2,200.6,23.1,196.9,23.1z M156.1,34.2
	c-1.2,1.2-2.8,2-4.5,2.1c-0.6,0-1.2-0.1-1.8-0.3s-1.1-0.6-1.5-1s-0.8-1-1-1.5c-0.2-0.6-0.3-1.2-0.3-1.8c-0.1-0.6,0-1.2,0.2-1.8
	c0.2-0.6,0.5-1.1,0.9-1.6c0.4-0.4,0.9-0.8,1.5-1c0.6-0.2,1.2-0.3,1.8-0.3c0.8,0,1.8,0.3,1.9,0.8v0.1c0.1,0.3,0.3,0.7,0.6,0.9
	c0.3,0.2,0.6,0.3,1,0.3h2.4V27c0-2.8-3.6-3.9-6-3.9c-5.2,0-9,3.6-9,8.6s3.7,8.6,8.9,8.6c1.3,0,2.6-0.3,3.8-0.8
	c1.2-0.5,2.3-1.3,3.2-2.3l-1.9-3.3L156.1,34.2z"/>
</svg>
